<svg width="25" height="24" viewBox="0 0 25 24" fill="none" xmlns="http://www.w3.org/2000/svg">
<path d="M20.875 13.75C20.875 13.3358 20.5392 13 20.125 13H17.125C16.7108 13 16.375 13.3358 16.375 13.75V20.5H14.875V4.25C14.875 3.52169 14.8734 3.05091 14.8268 2.70403C14.783 2.37872 14.7124 2.27676 14.6553 2.21967C14.5982 2.16258 14.4963 2.09197 14.171 2.04823C13.8241 2.00159 13.3533 2 12.625 2C11.8967 2 11.4259 2.00159 11.079 2.04823C10.7537 2.09197 10.6518 2.16258 10.5947 2.21967C10.5376 2.27676 10.467 2.37872 10.4232 2.70403C10.3766 3.05091 10.375 3.52169 10.375 4.25V20.5H8.875V8.75C8.875 8.33579 8.53921 8 8.125 8H5.125C4.71079 8 4.375 8.33579 4.375 8.75V20.5H2.875H2.625C2.21079 20.5 1.875 20.8358 1.875 21.25C1.875 21.6642 2.21079 22 2.625 22H22.625C23.0392 22 23.375 21.6642 23.375 21.25C23.375 20.8358 23.0392 20.5 22.625 20.5H22.375H20.875V13.75Z" fill="#000DFF"/>
</svg>
