<svg width="25" height="24" viewBox="0 0 25 24" fill="none" xmlns="http://www.w3.org/2000/svg">
<path d="M8.76229 5.07916C8.6008 4.8117 8.43126 4.56198 8.2628 4.3346C9.41732 3.49515 10.8383 3 12.375 3C13.695 3 14.9297 3.36536 15.9834 4.00047C15.9682 4.08959 15.9467 4.19054 15.9169 4.30292C15.8113 4.70203 15.6451 5.08295 15.5038 5.3053C15.4551 5.38197 15.2548 5.5778 14.8914 5.84854C14.7294 5.96924 14.5495 6.08008 14.3353 6.20811L14.261 6.25243C14.0735 6.36416 13.8589 6.49199 13.6521 6.63373C13.1641 6.96807 12.6559 7.41998 12.3141 8.15075C12.0669 8.67927 12.0839 9.19402 12.1932 9.60686C12.2289 9.74163 12.2485 9.87731 12.2488 9.99652C12.2489 10.0336 12.2344 10.0928 12.1516 10.1619C12.0626 10.2363 11.9372 10.2812 11.8245 10.28C10.7475 10.2678 9.89799 9.37575 9.7747 7.95271C9.681 6.8712 9.2391 5.86882 8.76229 5.07916Z" fill="white" fill-opacity="0.6"/>
<path d="M17.0267 14.5089C17.2912 14.5062 17.5393 14.4888 17.7719 14.4582C16.8943 15.5195 15.7096 16.3175 14.3541 16.7163C14.3076 16.3349 14.3381 15.8766 14.5629 15.4531C14.7548 15.0914 15.2407 14.8197 15.8966 14.6585C16.1979 14.5844 16.4844 14.5464 16.6972 14.5273C16.8027 14.5179 16.8875 14.5133 16.944 14.511C16.9722 14.5099 16.9931 14.5094 17.0058 14.5092L17.0179 14.509L17.0267 14.5089Z" fill="white" fill-opacity="0.6"/>
<path d="M5.375 10C5.375 8.28063 5.9949 6.70604 7.02338 5.48753C7.12456 5.63106 7.22597 5.78497 7.32413 5.94753C7.72556 6.61238 8.03738 7.36367 8.10097 8.09772C8.27174 10.0688 9.58246 11.9347 11.8055 11.9599C12.7673 11.9708 13.9319 11.2479 13.9288 9.99234C13.9281 9.70484 13.8829 9.42468 13.8173 9.17689C13.7857 9.05761 13.7902 8.96019 13.8359 8.86248C14.0064 8.49787 14.2581 8.25497 14.6016 8.01963C14.7616 7.91002 14.9279 7.81086 15.1202 7.69614L15.1972 7.65014C15.4125 7.52146 15.658 7.37244 15.8952 7.1957C16.24 6.93877 16.6857 6.57794 16.9218 6.20623C17.1088 5.912 17.282 5.5347 17.4162 5.14341C18.6291 6.40212 19.375 8.11395 19.375 10C19.375 10.5323 19.3156 11.0508 19.203 11.5491C19.1356 11.7487 19.0516 11.9352 18.9003 12.1315C18.6631 12.4393 18.1881 12.8167 17.0092 12.829L17.0032 12.829L16.9745 12.8295C16.9508 12.8299 16.9182 12.8307 16.8777 12.8323C16.7968 12.8355 16.6837 12.8418 16.5471 12.8541C16.2758 12.8784 15.9014 12.9273 15.4956 13.027C14.7374 13.2134 13.6248 13.6368 13.0789 14.6656C12.6481 15.4773 12.5996 16.3106 12.6966 16.9927C12.59 16.9976 12.4828 17 12.375 17C8.50901 17 5.375 13.866 5.375 10Z" fill="white" fill-opacity="0.6"/>
<path fill-rule="evenodd" clip-rule="evenodd" d="M18.3785 1.49982C18.6547 1.19118 19.1289 1.16491 19.4375 1.44116C21.6996 3.4658 23.125 6.41044 23.125 9.687C23.125 15.4384 18.7362 20.1647 13.125 20.6996V21.25H14.375C14.7892 21.25 15.125 21.5858 15.125 22C15.125 22.4142 14.7892 22.75 14.375 22.75H10.375C9.96079 22.75 9.62501 22.4142 9.62501 22C9.62501 21.5858 9.96079 21.25 10.375 21.25H11.625V20.7415C8.52423 20.621 5.75037 19.2236 3.81616 17.0625C3.53991 16.7539 3.56618 16.2797 3.87482 16.0035C4.18347 15.7272 4.65761 15.7535 4.93386 16.0622C6.68598 18.0198 9.22983 19.25 12.062 19.25C17.3435 19.25 21.625 14.9685 21.625 9.687C21.625 6.85483 20.3948 4.31098 18.4372 2.55886C18.1285 2.28261 18.1022 1.80847 18.3785 1.49982Z" fill="white" fill-opacity="0.6"/>
</svg>
