<svg width="25" height="24" viewBox="0 0 25 24" fill="none" xmlns="http://www.w3.org/2000/svg">
<path d="M8.625 5C8.625 6.65685 7.28185 8 5.625 8C3.96815 8 2.625 6.65685 2.625 5C2.625 3.34315 3.96815 2 5.625 2C7.28185 2 8.625 3.34315 8.625 5Z" fill="white" fill-opacity="0.6"/>
<path d="M22.625 19C22.625 20.6569 21.2819 22 19.625 22C17.9681 22 16.625 20.6569 16.625 19C16.625 17.3431 17.9681 16 19.625 16C21.2819 16 22.625 17.3431 22.625 19Z" fill="white" fill-opacity="0.6"/>
<path fill-rule="evenodd" clip-rule="evenodd" d="M10.875 5C10.875 4.58579 11.2108 4.25 11.625 4.25H16.7569C19.5081 4.25 20.5544 7.843 18.2333 9.32007L7.82203 15.9454C6.76697 16.6168 7.24257 18.25 8.49312 18.25H11.8143L11.5947 18.0303C11.3018 17.7374 11.3018 17.2626 11.5947 16.9697C11.8876 16.6768 12.3624 16.6768 12.6553 16.9697L14.1553 18.4697C14.4482 18.7626 14.4482 19.2374 14.1553 19.5303L12.6553 21.0303C12.3624 21.3232 11.8876 21.3232 11.5947 21.0303C11.3018 20.7374 11.3018 20.2626 11.5947 19.9697L11.8143 19.75H8.49312C5.74188 19.75 4.69562 16.157 7.01672 14.6799L17.428 8.05458C18.483 7.38318 18.0074 5.75 16.7569 5.75H11.625C11.2108 5.75 10.875 5.41421 10.875 5Z" fill="white" fill-opacity="0.6"/>
</svg>
