<svg width="25" height="24" viewBox="0 0 25 24" fill="none" xmlns="http://www.w3.org/2000/svg">
<path fill-rule="evenodd" clip-rule="evenodd" d="M14.4038 2.15224C14.0335 2 13.564 2 12.625 2C11.686 2 11.2165 2 10.8462 2.15224C10.3524 2.35523 9.96009 2.74458 9.75556 3.23463C9.66219 3.45834 9.62565 3.7185 9.61135 4.09799C9.59034 4.65568 9.30216 5.17189 8.81517 5.45093C8.32818 5.72996 7.73364 5.71954 7.23649 5.45876C6.89818 5.2813 6.65289 5.18262 6.41099 5.15102C5.88109 5.08178 5.34518 5.22429 4.92116 5.5472C4.60314 5.78938 4.36839 6.1929 3.8989 6.99993C3.42941 7.80697 3.19467 8.21048 3.14235 8.60491C3.07258 9.1308 3.21618 9.66266 3.54155 10.0835C3.69006 10.2756 3.89877 10.437 4.2227 10.639C4.69891 10.936 5.00532 11.4419 5.00529 12C5.00526 12.5581 4.69886 13.0639 4.2227 13.3608C3.89872 13.5629 3.68997 13.7244 3.54145 13.9165C3.21608 14.3373 3.07249 14.8691 3.14225 15.395C3.19457 15.7894 3.42932 16.193 3.8988 17C4.36829 17.807 4.60304 18.2106 4.92106 18.4527C5.34508 18.7756 5.88099 18.9181 6.41089 18.8489C6.65278 18.8173 6.89805 18.7186 7.23633 18.5412C7.73352 18.2804 8.3281 18.27 8.81512 18.549C9.30214 18.8281 9.59033 19.3443 9.61135 19.9021C9.62565 20.2815 9.66219 20.5417 9.75556 20.7654C9.96009 21.2554 10.3524 21.6448 10.8462 21.8478C11.2165 22 11.686 22 12.625 22C13.564 22 14.0335 22 14.4038 21.8478C14.8976 21.6448 15.2899 21.2554 15.4944 20.7654C15.5878 20.5417 15.6244 20.2815 15.6387 19.902C15.6597 19.3443 15.9478 18.8281 16.4348 18.549C16.9218 18.2699 17.5164 18.2804 18.0136 18.5412C18.3519 18.7186 18.5971 18.8172 18.839 18.8488C19.3689 18.9181 19.9048 18.7756 20.3288 18.4527C20.6469 18.2105 20.8816 17.807 21.3511 16.9999C21.8206 16.1929 22.0553 15.7894 22.1077 15.395C22.1774 14.8691 22.0338 14.3372 21.7085 13.9164C21.5599 13.7243 21.3512 13.5628 21.0272 13.3608C20.5511 13.0639 20.2447 12.558 20.2447 11.9999C20.2447 11.4418 20.5511 10.9361 21.0272 10.6392C21.3513 10.4371 21.56 10.2757 21.7086 10.0835C22.0339 9.66273 22.1775 9.13087 22.1078 8.60497C22.0554 8.21055 21.8207 7.80703 21.3512 7C20.8817 6.19297 20.647 5.78945 20.3289 5.54727C19.9049 5.22436 19.369 5.08185 18.8391 5.15109C18.5972 5.18269 18.3519 5.28136 18.0137 5.4588C17.5165 5.71959 16.9219 5.73002 16.4349 5.45096C15.9479 5.17191 15.6597 4.65566 15.6386 4.09794C15.6243 3.71848 15.5878 3.45833 15.4944 3.23463C15.2899 2.74458 14.8976 2.35523 14.4038 2.15224ZM12.625 15C14.2945 15 15.6478 13.6569 15.6478 12C15.6478 10.3431 14.2945 9 12.625 9C10.9555 9 9.60216 10.3431 9.60216 12C9.60216 13.6569 10.9555 15 12.625 15Z" fill="white" fill-opacity="0.6"/>
</svg>
